<svg width="1024" height="1024" viewBox="0 0 1024 1024" fill="none" xmlns="http://www.w3.org/2000/svg">
<path d="M671.073 285.961C680.703 279.498 683.27 266.452 676.807 256.822L571.485 99.8876C565.022 90.2573 551.976 87.6898 542.346 94.1529C532.716 100.616 530.148 113.662 536.611 123.292L630.231 262.789L490.734 356.409C481.103 362.872 478.536 375.918 484.999 385.548C491.462 395.179 504.508 397.746 514.139 391.283L671.073 285.961ZM226.37 641.523L246.811 636.709V636.709L226.37 641.523ZM718.87 754.023L704.021 739.174V739.174L718.87 754.023ZM810.411 451.167C805.52 440.651 793.03 436.092 782.514 440.983C771.997 445.874 767.438 458.364 772.329 468.88L791.37 460.024L810.411 451.167ZM654.213 491.879C662.418 483.681 662.423 470.385 654.226 462.181C646.028 453.976 632.732 453.97 624.527 462.168L639.37 477.023L654.213 491.879ZM492.245 624.023L477.402 638.879C485.602 647.072 498.888 647.072 507.088 638.879L492.245 624.023ZM440.213 542.35C432.009 534.152 418.712 534.158 410.515 542.362C402.317 550.567 402.323 563.863 410.527 572.061L425.37 557.205L440.213 542.35ZM659.37 268.524L663.425 247.919C548.775 225.356 418.479 251.55 324.532 319.741C229.443 388.76 171.705 501.048 205.929 646.338L226.37 641.523L246.811 636.709C216.861 509.565 266.373 413.853 349.203 353.731C433.174 292.78 551.465 268.691 655.315 289.129L659.37 268.524ZM226.37 641.523L205.929 646.338C234.718 768.555 330.26 837.146 435.53 856.068C540.097 874.863 657.212 845.38 733.719 768.872L718.87 754.023L704.021 739.174C638.528 804.667 535.893 831.434 442.96 814.73C350.73 798.152 271.022 739.492 246.811 636.709L226.37 641.523ZM718.87 754.023L733.719 768.872C853.715 648.875 833.32 500.42 810.411 451.167L791.37 460.024L772.329 468.88C789.42 505.626 809.025 634.169 704.021 739.174L718.87 754.023ZM639.37 477.023L624.527 462.168L477.402 609.168L492.245 624.023L507.088 638.879L654.213 491.879L639.37 477.023ZM492.245 624.023L507.088 609.168L440.213 542.35L425.37 557.205L410.527 572.061L477.402 638.879L492.245 624.023Z" fill="white"/>
</svg>
