<svg width="1024" height="1024" viewBox="0 0 1024 1024" fill="none" xmlns="http://www.w3.org/2000/svg">
<rect width="1024" height="1024" rx="100" fill="#232323"/>
<path d="M668.286 281.809C675.624 276.885 677.58 266.945 672.656 259.608L592.41 140.039C587.486 132.702 577.546 130.746 570.209 135.67C562.871 140.594 560.915 150.534 565.839 157.871L637.169 264.155L530.885 335.484C523.548 340.408 521.592 350.348 526.516 357.685C531.44 365.023 541.38 366.979 548.717 362.055L668.286 281.809ZM226.37 641.523L241.944 637.855V637.855L226.37 641.523ZM718.87 754.023L707.556 742.709V742.709L718.87 754.023ZM805.878 453.276C802.151 445.264 792.635 441.79 784.622 445.517C776.61 449.243 773.136 458.76 776.863 466.772L791.37 460.024L805.878 453.276ZM650.679 488.342C656.93 482.096 656.934 471.966 650.689 465.715C644.443 459.464 634.312 459.459 628.061 465.705L639.37 477.023L650.679 488.342ZM492.245 624.023L480.936 635.342C487.184 641.584 497.307 641.584 503.554 635.342L492.245 624.023ZM436.679 545.887C430.428 539.641 420.297 539.645 414.052 545.896C407.806 552.147 407.81 562.278 414.061 568.524L425.37 557.205L436.679 545.887ZM659.37 268.524L662.46 252.825C549.095 230.515 420.228 256.458 327.469 323.787C233.84 391.748 177.081 502.062 210.796 645.192L226.37 641.523L241.944 637.855C211.485 508.551 261.977 410.866 346.266 349.684C431.425 287.872 551.145 263.532 656.281 284.223L659.37 268.524ZM226.37 641.523L210.796 645.192C239.04 765.095 332.697 832.503 436.414 851.146C539.597 869.693 654.988 840.533 730.184 765.337L718.87 754.023L707.556 742.709C640.752 809.514 536.393 836.604 442.076 819.651C348.293 802.794 266.7 742.951 241.944 637.855L226.37 641.523ZM718.87 754.023L730.184 765.337C848.395 647.124 828.094 501.04 805.878 453.276L791.37 460.024L776.863 466.772C794.646 505.006 814.345 635.92 707.556 742.709L718.87 754.023ZM639.37 477.023L628.061 465.705L480.936 612.705L492.245 624.023L503.554 635.342L650.679 488.342L639.37 477.023ZM492.245 624.023L503.554 612.705L436.679 545.887L425.37 557.205L414.061 568.524L480.936 635.342L492.245 624.023Z" fill="white"/>
</svg>
