<svg width="1024" height="1024" viewBox="0 0 1024 1024" fill="none" xmlns="http://www.w3.org/2000/svg">
<rect width="1024" height="1024" rx="100" fill="#EEEEEE"/>
<path d="M671.63 286.792C681.719 280.021 684.408 266.353 677.638 256.264L567.3 91.8573C560.53 81.7684 546.862 79.0787 536.773 85.8495C526.684 92.6203 523.995 106.288 530.765 116.377L628.843 262.516L482.703 360.594C472.615 367.365 469.925 381.032 476.696 391.121C483.466 401.21 497.134 403.9 507.223 397.129L671.63 286.792ZM226.37 641.523L247.784 636.479L226.37 641.523ZM718.87 754.023L703.314 738.467V738.467L718.87 754.023ZM811.318 450.746C806.194 439.729 793.109 434.952 782.092 440.076C771.075 445.2 766.298 458.285 771.422 469.302L791.37 460.024L811.318 450.746ZM654.92 492.586C663.515 483.999 663.521 470.069 654.933 461.474C646.345 452.879 632.416 452.873 623.82 461.46L639.37 477.023L654.92 492.586ZM492.245 624.023L476.695 639.586C485.285 648.169 499.205 648.169 507.795 639.586L492.245 624.023ZM440.92 541.642C432.325 533.054 418.395 533.06 409.807 541.656C401.219 550.251 401.225 564.18 409.82 572.768L425.37 557.205L440.92 541.642ZM659.37 268.524L663.618 246.938C548.711 224.324 418.129 250.568 323.944 318.932C228.564 388.163 170.63 500.846 204.956 646.568L226.37 641.523L247.784 636.479C217.936 509.768 267.252 414.45 349.791 354.54C433.524 293.762 551.529 269.723 655.122 290.11L659.37 268.524ZM226.37 641.523L204.956 646.568C233.854 769.247 329.773 838.074 435.353 857.052C540.197 875.897 657.657 846.349 734.426 769.579L718.87 754.023L703.314 738.467C638.083 803.698 535.793 830.4 443.137 813.746C351.217 797.223 271.886 738.799 247.784 636.479L226.37 641.523ZM718.87 754.023L734.426 769.579C854.779 649.225 834.365 500.297 811.318 450.746L791.37 460.024L771.422 469.302C788.375 505.75 807.961 633.819 703.314 738.467L718.87 754.023ZM639.37 477.023L623.82 461.46L476.695 608.46L492.245 624.023L507.795 639.586L654.92 492.586L639.37 477.023ZM492.245 624.023L507.795 608.46L440.92 541.642L425.37 557.205L409.82 572.768L476.695 639.586L492.245 624.023Z" fill="#41CE75"/>
</svg>
