<svg width="5069" height="1024" viewBox="0 0 5069 1024" fill="none" xmlns="http://www.w3.org/2000/svg">
<rect width="1024" height="1024" rx="100" fill="#EEEEEE"/>
<path d="M671.63 286.792C681.719 280.021 684.408 266.353 677.638 256.264L567.3 91.8573C560.53 81.7684 546.862 79.0787 536.773 85.8495C526.684 92.6203 523.995 106.288 530.765 116.377L628.843 262.516L482.703 360.594C472.615 367.365 469.925 381.032 476.696 391.121C483.466 401.21 497.134 403.9 507.223 397.129L671.63 286.792ZM226.37 641.523L247.784 636.479L226.37 641.523ZM718.87 754.023L703.314 738.467V738.467L718.87 754.023ZM811.318 450.746C806.194 439.729 793.109 434.952 782.092 440.076C771.075 445.2 766.298 458.285 771.422 469.302L791.37 460.024L811.318 450.746ZM654.92 492.586C663.515 483.999 663.521 470.069 654.933 461.474C646.345 452.879 632.416 452.873 623.82 461.46L639.37 477.023L654.92 492.586ZM492.245 624.023L476.695 639.586C485.285 648.169 499.205 648.169 507.795 639.586L492.245 624.023ZM440.92 541.642C432.325 533.054 418.395 533.06 409.807 541.656C401.219 550.251 401.225 564.18 409.82 572.768L425.37 557.205L440.92 541.642ZM659.37 268.524L663.618 246.938C548.711 224.324 418.129 250.568 323.944 318.932C228.564 388.163 170.63 500.846 204.956 646.568L226.37 641.523L247.784 636.479C217.936 509.768 267.252 414.45 349.791 354.54C433.524 293.762 551.529 269.723 655.122 290.11L659.37 268.524ZM226.37 641.523L204.956 646.568C233.854 769.247 329.773 838.074 435.353 857.052C540.197 875.897 657.657 846.349 734.426 769.579L718.87 754.023L703.314 738.467C638.083 803.698 535.793 830.4 443.137 813.746C351.217 797.223 271.886 738.799 247.784 636.479L226.37 641.523ZM718.87 754.023L734.426 769.579C854.779 649.225 834.365 500.297 811.318 450.746L791.37 460.024L771.422 469.302C788.375 505.75 807.961 633.819 703.314 738.467L718.87 754.023ZM639.37 477.023L623.82 461.46L476.695 608.46L492.245 624.023L507.795 639.586L654.92 492.586L639.37 477.023ZM492.245 624.023L507.795 608.46L440.92 541.642L425.37 557.205L409.82 572.768L476.695 639.586L492.245 624.023Z" fill="#41CE75"/>
<path d="M1730.4 148.3V799H1644V513.7H1302.9V799H1215.6V148.3H1302.9V430.9H1644V148.3H1730.4ZM1979.95 808C1945.15 808 1913.35 800.5 1884.55 785.5C1856.35 770.5 1833.85 748.6 1817.05 719.8C1800.85 690.4 1792.75 654.7 1792.75 612.7C1792.75 571.3 1801.45 535.6 1818.85 505.6C1836.25 475 1859.35 451.6 1888.15 435.4C1917.55 419.2 1949.65 411.1 1984.45 411.1C2019.25 411.1 2048.65 419.2 2072.65 435.4C2096.65 451 2114.95 469.6 2127.55 491.2L2122.15 505.6L2130.25 426.4H2207.65V799H2123.95V701.8L2132.95 723.4C2130.55 729.4 2125.15 737.2 2116.75 746.8C2108.95 755.8 2098.15 765.1 2084.35 774.7C2071.15 784.3 2055.85 792.4 2038.45 799C2021.05 805 2001.55 808 1979.95 808ZM2002.45 738.7C2023.45 738.7 2042.35 734.8 2059.15 727C2075.95 719.2 2089.75 708.4 2100.55 694.6C2111.95 680.2 2119.75 663.1 2123.95 643.3V570.4C2119.15 552.4 2110.75 536.8 2098.75 523.6C2086.75 509.8 2072.35 499.3 2055.55 492.1C2038.75 484.3 2020.15 480.4 1999.75 480.4C1977.55 480.4 1957.15 485.8 1938.55 496.6C1919.95 507.4 1904.95 522.4 1893.55 541.6C1882.75 560.8 1877.35 583.3 1877.35 609.1C1877.35 633.1 1883.05 655 1894.45 674.8C1905.85 694.6 1921.15 710.2 1940.35 721.6C1959.55 733 1980.25 738.7 2002.45 738.7ZM2507.29 808C2473.09 808 2442.79 800.5 2416.39 785.5C2390.59 770.5 2369.89 751.6 2354.29 728.8L2364.19 702.7V799H2280.49V102.4H2363.29V511.9L2360.59 480.4C2375.59 460 2396.89 443.5 2424.49 430.9C2452.69 417.7 2483.89 411.1 2518.09 411.1C2551.69 411.1 2582.29 419.2 2609.89 435.4C2637.49 451.6 2659.39 474.4 2675.59 503.8C2692.39 532.6 2700.79 567.1 2700.79 607.3C2700.79 649.3 2691.79 685.3 2673.79 715.3C2656.39 745.3 2632.99 768.4 2603.59 784.6C2574.19 800.2 2542.09 808 2507.29 808ZM2490.19 736.9C2514.19 736.9 2535.79 731.2 2554.99 719.8C2574.19 708.4 2589.19 693.1 2599.99 673.9C2610.79 654.1 2616.19 631.6 2616.19 606.4C2616.19 582.4 2610.49 560.8 2599.09 541.6C2588.29 521.8 2573.29 506.2 2554.09 494.8C2535.49 483.4 2514.19 477.7 2490.19 477.7C2469.79 477.7 2450.89 481.6 2433.49 489.4C2416.09 497.2 2401.39 508 2389.39 521.8C2377.39 535 2368.99 550.6 2364.19 568.6V643.3C2368.99 661.3 2377.09 677.5 2388.49 691.9C2399.89 705.7 2414.29 716.8 2431.69 725.2C2449.09 733 2468.59 736.9 2490.19 736.9ZM2741.99 426.4H2825.69V799H2741.99V426.4ZM2735.69 291.4C2735.69 278.2 2740.79 267.1 2750.99 258.1C2761.79 249.1 2773.49 244.6 2786.09 244.6C2798.69 244.6 2809.79 249.1 2819.39 258.1C2829.59 267.1 2834.69 278.2 2834.69 291.4C2834.69 305.2 2829.59 316.6 2819.39 325.6C2809.79 334 2798.69 338.2 2786.09 338.2C2773.49 338.2 2761.79 333.7 2750.99 324.7C2740.79 315.7 2735.69 304.6 2735.69 291.4ZM2934.5 262.6H3018.2V428.2H3120.8V493.9H3018.2V799H2934.5V493.9H2866.1V428.2H2934.5V262.6ZM3648.54 750.4C3637.74 757.6 3623.04 765.7 3604.44 774.7C3585.84 783.7 3563.94 791.2 3538.74 797.2C3514.14 803.2 3487.14 806.2 3457.74 806.2C3407.34 805.6 3361.74 796.6 3320.94 779.2C3280.74 761.8 3246.54 738.1 3218.34 708.1C3190.14 678.1 3168.24 643.6 3152.64 604.6C3137.64 565 3130.14 523 3130.14 478.6C3130.14 430 3137.94 385.3 3153.54 344.5C3169.74 303.1 3192.24 267.4 3221.04 237.4C3249.84 206.8 3283.74 183.1 3322.74 166.3C3362.34 149.5 3405.54 141.1 3452.34 141.1C3491.34 141.1 3526.74 146.5 3558.54 157.3C3590.34 167.5 3617.64 179.8 3640.44 194.2L3605.34 275.2C3587.34 263.2 3565.44 251.8 3539.64 241C3514.44 230.2 3486.24 224.8 3455.04 224.8C3423.24 224.8 3393.24 231.1 3365.04 243.7C3336.84 256.3 3311.94 274 3290.34 296.8C3268.74 319.6 3251.64 346.3 3239.04 376.9C3227.04 406.9 3221.04 439.3 3221.04 474.1C3221.04 509.5 3226.44 542.5 3237.24 573.1C3248.64 603.1 3264.54 629.2 3284.94 651.4C3305.94 673.6 3331.14 691 3360.54 703.6C3389.94 716.2 3422.94 722.5 3459.54 722.5C3492.54 722.5 3521.94 717.4 3547.74 707.2C3573.54 697 3594.84 685.6 3611.64 673L3648.54 750.4ZM3875.64 808C3833.04 808 3796.44 799.6 3765.84 782.8C3735.24 765.4 3711.54 742 3694.74 712.6C3678.54 682.6 3670.44 648.4 3670.44 610C3670.44 573.4 3679.74 540.1 3698.34 510.1C3716.94 480.1 3741.84 456.1 3773.04 438.1C3804.24 420.1 3839.04 411.1 3877.44 411.1C3926.64 411.1 3967.44 425.5 3999.84 454.3C4032.24 483.1 4054.14 522.7 4065.54 573.1L3758.64 681.1L3738.84 631.6L3990.84 539.8L3972.84 551.5C3965.64 531.7 3953.64 514.6 3936.84 500.2C3920.04 485.2 3898.14 477.7 3871.14 477.7C3848.34 477.7 3827.94 483.4 3809.94 494.8C3791.94 505.6 3777.84 520.6 3767.64 539.8C3757.44 559 3752.34 580.9 3752.34 605.5C3752.34 631.3 3757.74 654.1 3768.54 673.9C3779.34 693.1 3794.04 708.4 3812.64 719.8C3831.84 730.6 3853.44 736 3877.44 736C3893.64 736 3909.24 733 3924.24 727C3939.84 721 3954.24 713.2 3967.44 703.6L4006.14 765.7C3987.54 778.3 3966.54 788.5 3943.14 796.3C3920.34 804.1 3897.84 808 3875.64 808ZM4173.12 426.4L4180.32 517.3L4176.72 502.9C4188.72 475.3 4208.22 453.4 4235.22 437.2C4262.22 420.4 4293.42 412 4328.82 412C4364.22 412 4393.02 422.5 4415.22 443.5C4438.02 463.9 4449.72 490.6 4450.32 523.6V799H4365.72V553.3C4365.12 532.9 4359.12 516.4 4347.72 503.8C4336.92 490.6 4319.82 484 4296.42 484C4274.82 484 4255.32 490 4237.92 502C4220.52 514 4206.72 530.5 4196.52 551.5C4186.92 572.5 4182.12 596.8 4182.12 624.4V799H4098.42V426.4H4173.12ZM4559.88 262.6H4643.58V428.2H4746.18V493.9H4643.58V799H4559.88V493.9H4491.48V428.2H4559.88V262.6ZM4879.72 806.2C4853.32 806.2 4827.52 801.7 4802.32 792.7C4777.72 783.1 4757.32 769 4741.12 750.4L4776.22 701.8C4791.82 716.8 4807.72 728.2 4823.92 736C4840.72 743.2 4857.22 746.8 4873.42 746.8C4885.42 746.8 4896.52 745.3 4906.72 742.3C4916.92 739.3 4925.02 734.5 4931.02 727.9C4937.62 720.7 4940.92 711.1 4940.92 699.1C4940.92 685.9 4936.42 675.4 4927.42 667.6C4919.02 659.8 4907.92 653.5 4894.12 648.7C4880.92 643.9 4866.82 639.4 4851.82 635.2C4821.22 625 4797.82 610.9 4781.62 592.9C4765.42 574.9 4757.32 553 4757.32 527.2C4757.32 507.4 4762.12 489.1 4771.72 472.3C4781.92 454.9 4796.62 440.8 4815.82 430C4835.62 419.2 4859.92 413.8 4888.72 413.8C4914.52 413.8 4937.62 417.1 4958.02 423.7C4978.42 429.7 4997.62 439.9 5015.62 454.3L4982.32 506.5C4971.52 495.1 4958.62 486.7 4943.62 481.3C4928.62 475.9 4915.12 472.9 4903.12 472.3C4892.92 471.7 4883.02 473.2 4873.42 476.8C4864.42 480.4 4856.92 485.5 4850.92 492.1C4844.92 498.7 4841.92 506.5 4841.92 515.5C4841.92 528.1 4846.12 538.3 4854.52 546.1C4862.92 553.9 4873.72 560.2 4886.92 565C4900.72 569.2 4914.22 573.7 4927.42 578.5C4946.02 583.9 4962.52 591.1 4976.92 600.1C4991.32 609.1 5002.72 620.2 5011.12 633.4C5020.12 646.6 5024.62 663.1 5024.62 682.9C5024.62 705.1 5019.22 725.8 5008.42 745C4998.22 763.6 4982.32 778.6 4960.72 790C4939.72 800.8 4912.72 806.2 4879.72 806.2Z" fill="#EEEEEE"/>
</svg>
